<svg xmlns="http://www.w3.org/2000/svg" id="Layer_2" viewBox="0 0 150.18 125">
  <g id="Layer_1-2">
    <g>
      <path d="M89.71,86.91h-24.47v24.01h24.47v-24.01Z" style="fill:#4ca585;"/>
      <path d="M74.36,60.84c-1.86-1.75-1.86-4.58,0-6.33,1.86-1.75,4.88-1.75,6.74,0l2.55,2.39,2.55-2.39c1.86-1.75,4.88-1.75,6.74,0,.47,.44,.82,.95,1.05,1.5,2.4-3.2,2.09-7.64-.96-10.5-3.41-3.2-8.94-3.2-12.35,0l-4.67,4.38-4.67-4.38c-3.41-3.2-8.94-3.2-12.35,0-3.41,3.2-3.41,8.39,0,11.58l17.02,15.48,4.87-4.43,.74-.68-7.28-6.62h0Z" style="fill:#f53a29;"/>
      <path d="M96.02,57.35c-1.86-1.75-4.88-1.75-6.74,0l-2.55,2.39-2.55-2.39c-1.86-1.75-4.88-1.75-6.74,0s-1.86,4.58,0,6.33l9.29,8.45,9.3-8.45c1.86-1.75,1.86-4.58,0-6.33h0Z" style="fill:#f53a29;"/>
      <path d="M113.53,43.11h31.59l5.06,12.93h-36.65v-12.93Z" style="fill:#4ca585;"/>
      <path d="M40.39,42.58H11.38l-3.94,13.46H40.39v-13.46Z" style="fill:#4ca585;"/>
      <path d="M44.13,28.95v-4.26L81.04,3.37l36.91,21.31v4.26H44.13Z" style="fill:#4ca585;"/>
      <path d="M83.66,70.4l-9.88-8.99c-2.2-2.06-2.2-5.4-.01-7.46,1.06-.99,2.47-1.54,3.97-1.54s2.91,.55,3.97,1.54l1.95,1.83,1.95-1.83c1.06-.99,2.47-1.54,3.97-1.54s2.91,.55,3.97,1.54c2.19,2.05,2.19,5.39,0,7.45l-9.89,9h0Zm-5.92-16.4c-1.05,0-2.04,.39-2.78,1.08-1.53,1.44-1.53,3.77,0,5.21l8.7,7.91,8.71-7.92c1.52-1.43,1.52-3.76-.01-5.2-.74-.7-1.73-1.08-2.78-1.08s-2.04,.39-2.78,1.08l-3.14,2.95-3.14-2.95c-.74-.7-1.73-1.08-2.78-1.08h.01Z" style="fill:#1c355e;"/>
      <path d="M73.06,69.98l-17.6-16.01c-1.82-1.7-2.81-3.96-2.81-6.36s1-4.65,2.81-6.35c1.81-1.7,4.21-2.63,6.77-2.63s4.96,.93,6.77,2.63l4.07,3.82,4.07-3.82c1.81-1.7,4.21-2.63,6.77-2.63s4.96,.93,6.77,2.63c1.81,1.69,2.81,3.95,2.81,6.35s-1,4.65-2.81,6.35l-1.19-1.12c1.49-1.4,2.31-3.26,2.31-5.23s-.82-3.84-2.31-5.23c-1.49-1.4-3.47-2.17-5.57-2.17s-4.09,.77-5.58,2.17l-5.27,4.94-5.27-4.94c-1.49-1.4-3.47-2.17-5.57-2.17s-4.09,.77-5.57,2.17c-1.49,1.4-2.31,3.26-2.31,5.23s.82,3.84,2.31,5.23l16.42,14.93,4.29-3.9,1.18,1.13-5.46,4.97h-.02Z" style="fill:#1c355e;"/>
      <path d="M145.85,107.34H3.48v1.58H145.85v-1.58Z" style="fill:#1c355e;"/>
      <path d="M149.32,125h-33.8v-1.58h32.11v-7.08H1.69v7.08H75.98v1.58H0v-10.24H149.32v10.24Z" style="fill:#1c355e;"/>
      <path d="M109.78,31.45h-1.69V108.13h1.69V31.45Z" style="fill:#1c355e;"/>
      <path d="M41.23,26.51h-1.69V108.13h1.69V26.51Z" style="fill:#1c355e;"/>
      <path d="M112.42,27.3H36.91v-5.5L74.66,0l37.76,21.8v5.5Zm-73.82-1.58H110.73v-3.03L74.66,1.86,38.6,22.69v3.03Z" style="fill:#1c355e;"/>
      <path d="M8.28,52.48h-1.69v55.65h1.69V52.48Z" style="fill:#1c355e;"/>
      <path d="M33.8,53.27H3.12l4.85-15.19h25.83v1.58H9.23l-3.84,12.02h28.41v1.58Z" style="fill:#1c355e;"/>
      <path d="M30.5,100.71h-1.69v-.18h1.69v.18Zm.01-1.85h-1.69v-1.68h1.7v1.68Zm0-3.36h-1.69v-1.68h1.7v1.68Zm0-3.36h-1.69v-1.68h1.7v1.68Zm0-3.36h-1.69v-1.68h1.7v1.68Zm0-3.36h-1.69v-1.68h1.7v1.68Zm0-3.36h-1.69v-1.68h1.7v1.68Zm0-3.36h-1.69v-1.68h1.7v1.68Zm0-3.36h-1.69v-1.68h1.7v1.68Zm0-3.36h-1.69v-1.68h1.7v1.68Zm0-3.36h-1.69v-1.68h1.7v1.68Zm0-3.36h-1.69v-1.68h1.7v1.68Z" style="fill:#1c355e;"/>
      <path d="M19.95,100.71h-1.69v-.18h1.69v.18Zm.01-1.85h-1.69v-1.68h1.7v1.68Zm0-3.36h-1.69v-1.68h1.7v1.68Zm0-3.36h-1.69v-1.68h1.7v1.68Zm0-3.36h-1.69v-1.68h1.7v1.68Zm0-3.36h-1.69v-1.68h1.7v1.68Zm0-3.36h-1.69v-1.68h1.7v1.68Zm0-3.36h-1.69v-1.68h1.7v1.68Zm0-3.36h-1.69v-1.68h1.7v1.68Zm0-3.36h-1.69v-1.68h1.7v1.68Zm0-3.36h-1.69v-1.68h1.7v1.68Zm0-3.36h-1.69v-1.68h1.7v1.68Z" style="fill:#1c355e;"/>
      <path d="M142.74,52.48h-1.69v55.65h1.69V52.48Z" style="fill:#1c355e;"/>
      <path d="M145.66,53.27h-30.13v-1.58h27.87l-3.85-12.02h-24.02v-1.58h25.28l4.85,15.19Z" style="fill:#1c355e;"/>
      <path d="M118.83,100.71v-.17h1.69s0,.17,0,.17h-1.69Zm-.01-1.85v-1.68s1.68,0,1.68,0v1.67s-1.68,0-1.68,0h0Zm-.02-3.35v-1.68s1.68,0,1.68,0v1.67s-1.68,0-1.68,0h0Zm-.02-3.35v-1.68s1.68,0,1.68,0v1.67s-1.68,0-1.68,0h0Zm-.02-3.35v-1.68s1.68,0,1.68,0v1.67s-1.68,0-1.68,0h0Zm-.02-3.35v-1.68s1.68,0,1.68,0v1.67s-1.68,0-1.68,0h0Zm-.02-3.35v-1.68s1.68,0,1.68,0v1.67s-1.68,0-1.68,0h0Zm-.02-3.35v-1.68s1.68,0,1.68,0v1.67s-1.68,0-1.68,0h0Zm-.02-3.35v-1.68s1.68,0,1.68,0v1.67s-1.68,0-1.68,0h0Zm-.02-3.35v-1.68s1.68,0,1.68,0v1.67s-1.68,0-1.68,0h0Zm-.02-3.35v-1.68s1.68,0,1.68,0v1.67s-1.68,0-1.68,0h0Zm-.02-3.35v-1.68s1.68,0,1.68,0v1.67s-1.68,0-1.68,0h0Z" style="fill:#1c355e;"/>
      <path d="M129.37,100.71v-.17h1.69s0,.17,0,.17h-1.69Zm-.01-1.85v-1.68s1.68,0,1.68,0v1.67s-1.68,0-1.68,0h0Zm-.02-3.35v-1.68s1.68,0,1.68,0v1.67s-1.68,0-1.68,0h0Zm-.02-3.35v-1.68s1.68,0,1.68,0v1.67s-1.68,0-1.68,0h0Zm-.02-3.35v-1.68s1.68,0,1.68,0v1.67s-1.68,0-1.68,0h0Zm-.02-3.35v-1.68s1.68,0,1.68,0v1.67s-1.68,0-1.68,0h0Zm-.02-3.35v-1.68s1.68,0,1.68,0v1.67s-1.68,0-1.68,0h0Zm-.02-3.35v-1.68s1.68,0,1.68,0v1.67s-1.68,0-1.68,0h0Zm-.02-3.35v-1.68s1.68,0,1.68,0v1.67s-1.68,0-1.68,0h0Zm-.02-3.35v-1.68s1.68,0,1.68,0v1.67s-1.68,0-1.68,0h0Zm-.02-3.35v-1.68s1.68,0,1.68,0v1.67s-1.68,0-1.68,0h0Zm-.02-3.35v-1.68s1.68,0,1.68,0v1.67s-1.68,0-1.68,0h0Z" style="fill:#1c355e;"/>
      <path d="M87.37,108.13h-1.69v-23.94h-22.04v23.94h-1.69v-25.53h25.41v25.53Z" style="fill:#1c355e;"/>
      <path d="M75.51,83.39h-1.69v16.07h1.69v-16.07Z" style="fill:#1c355e;"/>
    </g>
  </g>
</svg>