<svg xmlns="http://www.w3.org/2000/svg" width="125" height="125" viewBox="0 0 125 125" fill="none"><g clip-path="url(#clip0_268_1858)"><path d="M57.2403 27.1975C54.4255 24.4099 54.4255 19.8861 57.2403 17.0985C60.0551 14.3109 64.623 14.3109 67.4378 17.0985L71.2935 20.917L75.1493 17.0985C77.7791 14.494 81.9362 14.3245 84.7647 16.5898C85.0249 13.5174 83.9702 10.3635 81.5938 8.01682C77.3203 3.78459 70.3895 3.78459 66.1092 8.01682L60.2537 13.8158L54.3981 8.01682C50.1246 3.78459 43.1939 3.78459 38.9135 8.01682C34.64 12.2491 34.64 19.1129 38.9135 23.3519L60.2468 43.8416L67.4036 36.971L57.2334 27.2043L57.2403 27.1975Z" fill="#F53A29"></path><path d="M91.894 61.2927H90.5312L91.216 54.829L96.1676 50.8478L102.53 49.376L109.07 53.1809L111.282 57.542L110.344 61.4962H102.283L95.1951 58.8849L91.894 61.2927Z" fill="#1A428A"></path><path d="M24.5521 49.2404L17.2447 51.6752L14.1902 55.9414V61.8964L17.909 59.319L27.5449 62.5L34.3798 60.6959L33.1607 54.5646L30.0789 50.5901L24.5521 49.2404Z" fill="#1A428A"></path><path d="M73.2385 80.2021C73.2385 80.2021 71.2456 86.4691 62.4931 86.4691C62.4931 86.4691 58.4456 86.3809 54.6104 83.3356C54.6104 83.3356 47.6934 85.601 47.6934 100.014H80.7925V89.6568L78.101 84.4005L73.2385 80.2021Z" fill="#1A428A"></path><path d="M88.4218 18.6856C85.607 15.898 81.039 15.898 78.2243 18.6856L74.3685 22.5041L70.5128 18.6856C67.698 15.898 63.1301 15.898 60.3153 18.6856C57.5005 21.4732 57.5005 25.997 60.3153 28.7846L74.3617 42.2748L88.4081 28.7846C91.2229 25.997 91.2229 21.4732 88.4081 18.6856H88.4218Z" fill="#F53A29"></path><path d="M40.9407 83.7968C40.3038 83.3152 39.6258 82.9015 38.9272 82.5624L31.2158 78.3437C29.757 77.5434 28.853 76.0241 28.853 74.376V70.8356H30.9076V74.376C30.9076 75.2848 31.4075 76.1259 32.2088 76.5667L39.8792 80.765C40.6531 81.1381 41.4475 81.6264 42.1871 82.1826L40.9407 83.8036V83.7968Z" fill="#1C355E"></path><path d="M3.54071 100.02H1.48615V89.3177C1.48615 86.1775 3.24623 83.3628 6.08838 81.9724L17.6282 76.309C18.0597 76.0988 18.3268 75.6715 18.3268 75.1967V71.5546H20.3813V75.1967C20.3813 76.4515 19.6759 77.5774 18.5391 78.1335L6.99924 83.7968C4.86249 84.8413 3.54071 86.9574 3.54071 89.3177V100.02Z" fill="#1C355E"></path><path d="M13.0123 92.7224H10.9577V100.02H13.0123V92.7224Z" fill="#1C355E"></path><path d="M23.9974 80.6972C21.1347 80.6972 18.5459 79.5306 17.0872 77.5705L18.7377 76.3564C19.8129 77.7943 21.7853 78.6557 23.9974 78.6557C26.2094 78.6557 28.1818 77.7943 29.2571 76.3564L30.9076 77.5705C29.442 79.5238 26.8601 80.6972 23.9974 80.6972Z" fill="#1C355E"></path><path d="M14.1628 63.3207L12.9438 61.6861L18.4911 57.6302L19.1006 58.0575C25.4767 62.5407 34.2428 60.3364 34.3319 60.3161L34.8523 62.283C34.4688 62.3847 25.6136 64.6229 18.5322 60.133L14.1628 63.3207Z" fill="#1C355E"></path><path d="M23.9974 74.3693C17.4501 74.3693 12.526 65.3419 12.526 59.4886C12.526 53.2759 17.6762 48.223 23.9974 48.223C30.3186 48.223 35.4687 53.2759 35.4687 59.4886C35.4687 65.3419 30.5446 74.3693 23.9974 74.3693ZM23.9974 50.2577C18.8062 50.2577 14.5806 54.4018 14.5806 59.4886C14.5806 64.5754 18.7993 72.3345 23.9974 72.3345C29.1954 72.3345 33.4142 64.5619 33.4142 59.4886C33.4142 54.4154 29.1886 50.2577 23.9974 50.2577Z" fill="#1C355E"></path><path d="M84.1894 84.5564L82.7923 83.0643C83.8196 82.1215 84.9633 81.3416 86.2097 80.7379L93.8322 76.5667C94.6335 76.1259 95.1334 75.2849 95.1334 74.376V71.5342H97.188V74.376C97.188 76.0241 96.284 77.5502 94.8252 78.3437L87.1548 82.542C86.0591 83.0711 85.0523 83.7629 84.1894 84.5564Z" fill="#1C355E"></path><path d="M124.555 100.02H122.5V89.3177C122.5 86.9574 121.172 84.8413 119.042 83.7968L107.502 78.1335C106.365 77.5774 105.66 76.4515 105.66 75.1967V70.8424H107.714V75.1967C107.714 75.6715 107.981 76.0988 108.413 76.309L119.953 81.9724C122.788 83.3628 124.555 86.1775 124.555 89.3177V100.02Z" fill="#1C355E"></path><path d="M115.083 92.7224H113.029V100.02H115.083V92.7224Z" fill="#1C355E"></path><path d="M100.838 80.6972C97.9756 80.6972 95.3868 79.5306 93.9281 77.5705L95.5786 76.3564C96.6538 77.7943 98.6262 78.6557 100.838 78.6557C103.05 78.6557 105.023 77.7943 106.098 76.3564L107.748 77.5705C106.283 79.5238 103.701 80.6972 100.838 80.6972Z" fill="#1C355E"></path><path d="M100.838 74.3693C94.291 74.3693 89.3669 65.3419 89.3669 59.4886C89.3669 53.2759 94.517 48.223 100.838 48.223C107.159 48.223 112.31 53.2759 112.31 59.4886C112.31 65.3419 107.385 74.3693 100.838 74.3693ZM100.838 50.2577C95.647 50.2577 91.4215 54.4018 91.4215 59.4886C91.4215 64.5754 95.6402 72.3345 100.838 72.3345C106.036 72.3345 110.255 64.5619 110.255 59.4886C110.255 54.4154 106.029 50.2577 100.838 50.2577Z" fill="#1C355E"></path><path d="M45.632 100.02H43.5774V94.0857C43.5774 88.0358 46.9127 82.3793 52.2888 79.3272L52.3573 79.2933L57.6101 76.7973C58.6785 76.2886 59.3634 75.2035 59.3634 74.0301V72.9246H61.4179V74.0301C61.4179 75.9834 60.2742 77.7876 58.4936 78.6286L53.275 81.1109C48.5563 83.8103 45.632 88.7751 45.632 94.0857V100.02Z" fill="#1C355E"></path><path d="M82.4636 100.02H80.409V94.0857C80.409 88.7751 77.4778 83.8036 72.766 81.1109L67.5474 78.6286C65.7736 77.7876 64.623 75.9767 64.623 74.0301V72.9246H66.6776V74.0301C66.6776 75.2035 67.3693 76.2886 68.4308 76.7973L73.7453 79.3272C79.1146 82.3793 82.4567 88.0358 82.4567 94.0857V100.02H82.4636Z" fill="#1C355E"></path><path d="M62.4931 84.0139C56.0555 84.0139 53.9872 78.7575 53.905 78.5337L55.8295 77.8215C55.8911 77.9843 57.5074 81.9859 62.4931 81.9859C67.4789 81.9859 69.0951 77.9911 69.1636 77.8215L71.0881 78.5405C71.0059 78.7643 68.9376 84.0207 62.5 84.0207L62.4931 84.0139Z" fill="#1C355E"></path><path d="M75.0945 92.7224H73.0399V100.02H75.0945V92.7224Z" fill="#1C355E"></path><path d="M53.001 92.7224H50.9465V100.02H53.001V92.7224Z" fill="#1C355E"></path><path d="M62.4931 74.3692C57.0896 74.3692 53.9256 69.8114 53.5832 61.5368L55.6377 61.4554C55.8432 66.4202 57.1992 72.3344 62.4931 72.3344C66.0886 72.3344 68.3076 69.6215 69.0952 64.2634L71.1292 64.555C69.9375 72.6668 65.7805 74.3692 62.4931 74.3692Z" fill="#1C355E"></path><path d="M76.8409 83.7358L76.156 81.8163C77.2039 81.4501 77.9093 80.4666 77.9093 79.3814C77.9093 78.5065 77.471 77.6994 76.7313 77.2179C76.4437 77.0279 76.2725 76.7092 76.2725 76.37C76.2725 76.0309 76.4437 75.7122 76.7313 75.5222C77.471 75.0407 77.9093 74.2268 77.9093 73.3587C77.9093 72.4905 77.471 71.6766 76.7313 71.1951C76.4437 71.0052 76.2725 70.6864 76.2725 70.3473C76.2725 70.0081 76.4437 69.6894 76.7313 69.4995C77.471 69.0179 77.9093 68.204 77.9093 67.3359C77.9093 66.3321 77.3066 65.4097 76.3752 64.9824C76.067 64.8399 75.8547 64.5619 75.7931 64.2295C75.7383 63.8972 75.841 63.5648 76.0875 63.3275C76.4779 62.9476 76.6902 62.4457 76.6902 61.9031C76.6902 61.1096 76.2177 60.3975 75.478 60.0787C75.1904 59.9566 74.9781 59.7124 74.8959 59.414C73.2111 53.2216 68.2322 49.064 62.5 49.064C56.7677 49.064 51.782 53.2216 50.1041 59.414C50.0219 59.7124 49.8096 59.9566 49.522 60.0787C48.7892 60.3975 48.3098 61.1164 48.3098 61.9031C48.3098 62.439 48.5221 62.9476 48.9124 63.3275C49.1521 63.5648 49.2617 63.8972 49.2069 64.2295C49.1521 64.5619 48.933 64.8399 48.6248 64.9824C47.6934 65.4097 47.0907 66.3321 47.0907 67.3359C47.0907 68.2108 47.529 69.0179 48.2687 69.4995C48.5563 69.6894 48.7275 70.0081 48.7275 70.3473C48.7275 70.6864 48.5563 71.0052 48.2687 71.1951C47.529 71.6766 47.0907 72.4905 47.0907 73.3587C47.0907 74.2268 47.529 75.0407 48.2687 75.5222C48.5563 75.7122 48.7275 76.0309 48.7275 76.37C48.7275 76.7092 48.5563 77.0279 48.2687 77.2179C47.529 77.6994 47.0907 78.5133 47.0907 79.3814C47.0907 80.4734 47.7961 81.4501 48.844 81.8163L48.1591 83.7358C46.2963 83.0779 45.043 81.328 45.043 79.3814C45.043 78.2623 45.4471 77.1975 46.173 76.37C45.4539 75.5426 45.043 74.4778 45.043 73.3587C45.043 72.2396 45.4471 71.1747 46.173 70.3473C45.4539 69.5198 45.043 68.455 45.043 67.3359C45.043 65.9523 45.6799 64.6568 46.7278 63.7887C46.4196 63.2189 46.262 62.5746 46.262 61.9099C46.262 60.4788 47.0291 59.1698 48.2481 58.4509C50.289 51.6007 55.9665 47.0293 62.5068 47.0293C69.0472 47.0293 74.7247 51.6007 76.7655 58.4509C77.9846 59.1698 78.7516 60.4788 78.7516 61.9099C78.7516 62.5746 78.5873 63.2122 78.2859 63.7887C79.3338 64.6568 79.9707 65.9523 79.9707 67.3359C79.9707 68.455 79.5666 69.5198 78.8475 70.3473C79.5666 71.1747 79.9707 72.2396 79.9707 73.3587C79.9707 74.4778 79.5666 75.5426 78.8407 76.37C79.5598 77.1975 79.9707 78.2623 79.9707 79.3814C79.9707 81.328 78.7174 83.0779 76.8546 83.7358H76.8409Z" fill="#1C355E"></path><path d="M72.6975 65.9183C65.4997 64.901 60.0482 61.4352 58.2402 60.1533L53.9872 63.3139L52.7545 61.6861L58.2607 57.5963L58.884 58.0846C58.9456 58.1321 64.8696 62.751 72.9988 63.904L72.7112 65.9183H72.6975Z" fill="#1C355E"></path><path d="M90.8531 63.3207L89.634 61.6861L95.1814 57.6302L95.7909 58.0575C102.167 62.5407 110.933 60.3364 111.022 60.3161L111.543 62.283C111.159 62.3847 102.304 64.6229 95.2225 60.133L90.8531 63.3207Z" fill="#1C355E"></path><path d="M55.4665 41.427L33.4141 20.2523C31.1404 18.0005 29.894 15.0231 29.894 11.8557C29.894 8.68828 31.1404 5.7108 33.4004 3.4726C35.6605 1.2344 38.667 0 41.8653 0C45.0636 0 48.0701 1.2344 50.3301 3.4726L55.4597 8.55263L60.5892 3.4726C62.8493 1.2344 65.8558 0 69.0541 0C72.2524 0 75.2589 1.2344 77.5189 3.4726C80.3816 6.30765 81.6006 10.35 80.772 14.2838L78.7585 13.87C79.4433 10.6077 78.4366 7.26397 76.0602 4.91047C74.1836 3.05209 71.6976 2.03473 69.0472 2.03473C66.3968 2.03473 63.904 3.05887 62.0343 4.91047L55.4528 11.4284L48.8714 4.91047C46.9948 3.05209 44.5088 2.03473 41.8584 2.03473C39.208 2.03473 36.7152 3.05887 34.8455 4.91047C32.969 6.76885 31.9417 9.23087 31.9417 11.8557C31.9417 14.4805 32.9758 16.9493 34.8455 18.8009L55.4528 38.592L62.6164 31.7146L64.0478 33.1728L55.4528 41.427H55.4665Z" fill="#1C355E"></path><path d="M71.2867 41.427L56.5212 27.2518C54.9529 25.6986 54.0968 23.6503 54.0968 21.4731C54.0968 19.296 54.9529 17.2477 56.5075 15.7081C58.0621 14.1685 60.1304 13.3207 62.3288 13.3207C64.5272 13.3207 66.5954 14.1685 68.1501 15.7081L71.2799 18.8077L74.4096 15.7081C75.9643 14.1685 78.0325 13.3207 80.2309 13.3207C82.4293 13.3207 84.4976 14.1685 86.0522 15.7081C87.6068 17.2477 88.4629 19.296 88.4629 21.4731C88.4629 23.6503 87.6068 25.6986 86.0522 27.2382L71.273 41.427H71.2867ZM62.3356 15.3486C60.6851 15.3486 59.1305 15.9862 57.9662 17.1392C56.802 18.2922 56.1582 19.8318 56.1582 21.4664C56.1582 23.1009 56.802 24.6405 57.9662 25.7935L71.2867 38.5852L84.6209 25.78C85.7783 24.6338 86.422 23.1009 86.422 21.4596C86.422 19.8182 85.7783 18.2854 84.614 17.1324C83.4498 15.9794 81.8951 15.3418 80.2446 15.3418C78.5941 15.3418 77.0395 15.9794 75.8752 17.1324L71.2935 21.6698L66.7119 17.1324C65.5476 15.9794 63.993 15.3418 62.3425 15.3418L62.3356 15.3486Z" fill="#1C355E"></path><path d="M62.4931 125C61.9932 125 61.4932 125 60.9933 124.98L61.0412 122.945C61.7603 122.959 62.4794 122.965 63.2054 122.959L63.2259 124.993C62.9794 124.993 62.7397 124.993 62.4931 124.993V125ZM65.4586 124.932L65.3627 122.897C66.0818 122.864 66.8009 122.816 67.52 122.762L67.6912 124.79C66.9516 124.851 66.2051 124.898 65.4586 124.932ZM58.7607 124.891C58.0142 124.851 57.2745 124.79 56.5349 124.722L56.7267 122.694C57.4389 122.762 58.158 122.816 58.8839 122.857L58.7607 124.891ZM69.9101 124.566L69.6704 122.545C70.3895 122.463 71.1018 122.362 71.8072 122.253L72.1222 124.261C71.3894 124.369 70.6498 124.471 69.9101 124.559V124.566ZM54.316 124.471C53.5763 124.376 52.8367 124.268 52.1039 124.145L52.4463 122.138C53.1585 122.253 53.8708 122.362 54.583 122.457L54.316 124.471ZM74.3206 123.888L73.9371 121.887C74.6425 121.751 75.3479 121.609 76.0465 121.446L76.5053 123.426C75.7794 123.589 75.0534 123.738 74.3206 123.881V123.888ZM49.9055 123.738C49.1727 123.589 48.4467 123.426 47.7208 123.257L48.207 121.276C48.9056 121.446 49.611 121.602 50.3164 121.744L49.9055 123.738ZM78.6763 122.904L78.149 120.937C78.8475 120.754 79.5392 120.558 80.2241 120.347L80.8267 122.294C80.1145 122.511 79.4022 122.714 78.6831 122.904H78.6763ZM45.5635 122.694C44.8444 122.491 44.1321 122.28 43.4199 122.056L44.05 120.117C44.7348 120.334 45.4265 120.537 46.1182 120.734L45.5635 122.694ZM82.9498 121.609L82.2786 119.689C82.9635 119.459 83.6347 119.208 84.3058 118.957L85.0455 120.856C84.3538 121.12 83.6552 121.378 82.9498 121.616V121.609ZM41.3037 121.344C40.5983 121.093 39.9066 120.829 39.2149 120.558L39.9819 118.672C40.6462 118.937 41.3242 119.194 42.0022 119.432L41.3037 121.344ZM87.1137 120.015L86.3056 118.143C86.9699 117.865 87.6274 117.566 88.2711 117.268L89.1478 119.106C88.4766 119.418 87.7986 119.723 87.1137 120.015ZM37.1603 119.696C36.4754 119.398 35.8043 119.086 35.1331 118.76L36.0371 116.929C36.6809 117.241 37.3384 117.546 37.9958 117.831L37.1603 119.689V119.696ZM91.1544 118.129L90.2093 116.319C90.8462 115.993 91.4831 115.654 92.1132 115.301L93.1199 117.071C92.4693 117.431 91.8187 117.784 91.1544 118.123V118.129ZM33.1402 117.756C32.4827 117.41 31.8321 117.051 31.1884 116.678L32.2156 114.915C32.8389 115.274 33.4689 115.62 34.1058 115.952L33.1402 117.75V117.756ZM95.0444 115.959L93.976 114.223C94.5924 113.85 95.2019 113.47 95.7977 113.077L96.9277 114.772C96.3045 115.179 95.6813 115.572 95.0444 115.959ZM29.2708 115.532C28.6407 115.138 28.0175 114.731 27.4011 114.318L28.5585 112.636C29.1543 113.036 29.757 113.429 30.3665 113.809L29.2708 115.532ZM98.77 113.517L97.5783 111.862C98.1673 111.449 98.7426 111.021 99.311 110.587L100.564 112.202C99.9753 112.649 99.3727 113.09 98.77 113.517ZM25.5794 113.043C24.9767 112.609 24.3877 112.161 23.7987 111.7L25.0726 110.106C25.641 110.547 26.2094 110.981 26.7916 111.401L25.5794 113.043ZM102.311 110.818L101.003 109.251C101.557 108.797 102.105 108.329 102.646 107.861L104.009 109.38C103.454 109.868 102.886 110.35 102.311 110.818ZM22.0729 110.296C21.5045 109.821 20.9429 109.333 20.395 108.831L21.7784 107.325C22.3126 107.807 22.8536 108.275 23.4015 108.736L22.0729 110.289V110.296ZM105.653 107.874L104.235 106.403C104.756 105.908 105.269 105.406 105.769 104.897L107.242 106.314C106.721 106.843 106.194 107.359 105.653 107.868V107.874ZM18.7719 107.311C18.2377 106.796 17.7172 106.267 17.2036 105.738L18.6897 104.334C19.1828 104.849 19.6896 105.358 20.2033 105.86L18.7651 107.311H18.7719Z" fill="#1C355E"></path><path d="M123 78.6964L121.014 78.1878C121.192 77.4959 121.363 76.8041 121.521 76.1055L123.528 76.5464C123.363 77.2721 123.192 77.9843 123.007 78.6964H123ZM123.966 74.376L121.946 74.0098C122.076 73.3112 122.192 72.6058 122.302 71.9005L124.336 72.1989C124.226 72.9314 124.103 73.6571 123.973 74.3828L123.966 74.376ZM124.616 70.0014L122.576 69.7775C122.658 69.0722 122.719 68.36 122.774 67.6479L124.822 67.7971C124.767 68.5364 124.699 69.2689 124.616 70.0014ZM124.952 65.586L122.897 65.5046C122.925 64.7925 122.939 64.0803 122.945 63.3614H125C125 64.1074 124.979 64.8467 124.952 65.5792V65.586ZM122.918 61.2249C122.897 60.506 122.863 59.7938 122.815 59.0885L124.863 58.9528C124.911 59.6853 124.945 60.4246 124.973 61.1639L122.918 61.2249ZM122.63 56.9588C122.555 56.2466 122.473 55.5412 122.37 54.8359L124.404 54.5578C124.507 55.2835 124.596 56.016 124.671 56.7553L122.63 56.9588ZM122.041 52.7198C121.918 52.0144 121.781 51.3158 121.631 50.6172L123.637 50.1967C123.795 50.9156 123.932 51.6414 124.062 52.3671L122.035 52.7198H122.041ZM121.144 48.535C120.966 47.8432 120.781 47.1514 120.583 46.4664L122.555 45.9034C122.761 46.6088 122.952 47.321 123.137 48.0399L121.144 48.535ZM119.946 44.4316C119.72 43.7534 119.487 43.0819 119.234 42.4173L121.158 41.7119C121.411 42.4037 121.658 43.0955 121.891 43.7941L119.939 44.4316H119.946ZM118.453 40.4232C118.179 39.7653 117.898 39.1074 117.597 38.4631L119.466 37.6221C119.775 38.2936 120.069 38.965 120.35 39.65L118.446 40.4232H118.453ZM116.679 36.5301C116.357 35.8926 116.028 35.2618 115.686 34.6311L117.494 33.6612C117.85 34.3055 118.193 34.9634 118.521 35.6213L116.679 36.5233V36.5301ZM114.624 32.7727C114.261 32.1555 113.885 31.5518 113.494 30.9482L115.227 29.8562C115.624 30.4734 116.015 31.1042 116.391 31.7417L114.618 32.7727H114.624ZM112.303 29.1712C111.892 28.5811 111.474 28.0046 111.043 27.4349L112.693 26.2208C113.138 26.8109 113.57 27.4078 113.994 28.0182L112.303 29.1712ZM109.728 25.7393C109.276 25.1831 108.817 24.6338 108.351 24.0912L109.906 22.7618C110.392 23.318 110.865 23.8877 111.33 24.4642L109.728 25.7325V25.7393ZM106.913 22.4973C106.427 21.9751 105.927 21.4596 105.42 20.9509L106.879 19.5198C107.406 20.0421 107.92 20.5779 108.426 21.1205L106.92 22.5041L106.913 22.4973ZM103.872 19.4588C103.345 18.9704 102.811 18.4889 102.27 18.0209L103.619 16.4881C104.18 16.9764 104.728 17.4715 105.276 17.9734L103.872 19.4588ZM100.619 16.6441C100.058 16.1964 99.496 15.7556 98.9207 15.3215L100.16 13.7005C100.756 14.1481 101.338 14.6026 101.92 15.0638L100.626 16.6441H100.619ZM97.1674 14.06C96.5785 13.653 95.9826 13.2529 95.3731 12.8595L96.4894 11.1503C97.1127 11.5505 97.7359 11.9642 98.3454 12.3915L97.1674 14.06ZM93.5377 11.7268C92.9213 11.3606 92.2981 11.0011 91.6612 10.662L92.6542 8.8782C93.3049 9.23767 93.9555 9.60392 94.5924 9.98374L93.5377 11.7268ZM89.7505 9.65818C89.1067 9.33941 88.4561 9.02742 87.8055 8.72221L88.6684 6.87739C89.3464 7.18938 90.0175 7.50816 90.6819 7.84049L89.7573 9.65818H89.7505ZM85.8262 7.86084C85.1619 7.58276 84.4908 7.32503 83.8127 7.0673L84.5387 5.16144C85.2372 5.41917 85.929 5.69725 86.6207 5.98211L85.8262 7.86084Z" fill="#1C355E"></path><path d="M2.17783 79.3815C1.98607 78.6693 1.80116 77.9572 1.62995 77.2382L3.62973 76.777C3.79409 77.4756 3.97215 78.1674 4.15707 78.8524L2.17783 79.3883V79.3815ZM1.16424 75.0746C1.02042 74.3557 0.890301 73.6232 0.773875 72.8975L2.80105 72.5787C2.91748 73.2841 3.04075 73.9894 3.17772 74.688L1.16424 75.0814V75.0746ZM0.46569 70.7068C0.376658 69.9743 0.301324 69.2417 0.232839 68.5093L2.28056 68.3329C2.3422 69.0451 2.41753 69.7572 2.50656 70.4626L0.46569 70.7135V70.7068ZM0.0821701 66.2982C0.0479273 65.5657 0.0205331 64.8264 0.00683594 64.0871L2.06141 64.0532C2.0751 64.7721 2.09565 65.4843 2.12989 66.1897L0.0753216 66.2914L0.0821701 66.2982ZM2.06825 61.9167L0.0136845 61.876C0.0273816 61.1368 0.0547759 60.3975 0.0958673 59.665L2.15044 59.7803C2.10935 60.4924 2.08195 61.2046 2.06825 61.9167ZM2.30795 57.6438L0.260233 57.4607C0.328718 56.7214 0.410901 55.9889 0.499933 55.2632L2.5408 55.5209C2.45177 56.2263 2.36959 56.9384 2.30795 57.6506V57.6438ZM2.84899 53.3912L0.821815 53.0657C0.945089 52.3332 1.07521 51.6075 1.21903 50.8817L3.23251 51.2819C3.08869 51.9805 2.96542 52.6859 2.84899 53.3912ZM3.69821 49.1861L1.69843 48.7114C1.86965 47.9924 2.05456 47.2735 2.25317 46.5681L4.2324 47.1107C4.04064 47.7957 3.86258 48.4875 3.69136 49.1861H3.69821ZM4.84877 45.0556L2.89008 44.4452C3.11608 43.7399 3.34894 43.0413 3.60233 42.3427L5.54048 43.0277C5.30078 43.6992 5.06792 44.3774 4.84877 45.0556ZM6.30067 41.0201L4.38992 40.2673C4.66386 39.5822 4.9515 38.8972 5.25284 38.2257L7.13619 39.0464C6.84855 39.6975 6.56776 40.3554 6.30067 41.0201ZM8.0402 37.0999L6.19109 36.2181C6.51297 35.5535 6.84855 34.8956 7.19783 34.2445L9.0127 35.194C8.67712 35.8248 8.34839 36.4623 8.0402 37.1066V37.0999ZM10.0605 33.3153L8.2799 32.2979C8.64972 31.6604 9.03324 31.0228 9.43046 30.3988L11.1768 31.4772C10.7933 32.0809 10.4235 32.6913 10.0674 33.3153H10.0605ZM12.3479 29.6799L10.6427 28.5405C11.0604 27.93 11.485 27.3264 11.9233 26.7295L13.5875 27.9232C13.1629 28.4998 12.752 29.083 12.3479 29.6731V29.6799ZM14.8888 26.2209L13.2725 24.9661C13.7314 24.3828 14.2039 23.8131 14.6833 23.2502L16.2516 24.5592C15.7859 25.1018 15.3339 25.6579 14.8888 26.2209ZM17.6761 22.945L16.1558 21.5817C16.6557 21.0323 17.1625 20.4965 17.683 19.9675L19.1554 21.385C18.6555 21.8937 18.1624 22.4159 17.6761 22.945ZM20.6895 19.8725L19.265 18.4007C19.7992 17.892 20.3471 17.3902 20.9018 16.9018L22.2715 18.4211C21.7373 18.8958 21.2031 19.3774 20.6827 19.8725H20.6895ZM23.9152 17.0239L22.6003 15.4572C23.1755 14.9892 23.7508 14.528 24.3466 14.0735L25.5999 15.681C25.0315 16.1151 24.4699 16.5627 23.9152 17.0171V17.0239Z" fill="#1C355E"></path></g><defs><clipPath id="clip0_268_1858"><rect width="125" height="125" fill="white"></rect></clipPath></defs></svg>