<?xml version="1.0" encoding="UTF-8"?> <svg xmlns="http://www.w3.org/2000/svg" id="Layer_2" viewBox="0 0 235 45"><g id="Layer_1-2"><path d="M21.59,44.4h-6.91V25.65H6.8v18.75H0V.6H6.74c.01,.29,.04,.56,.04,.84,0,5.69,0,11.38,0,17.07,0,.6,.31,.89,.92,.89h6.93V.62h6.96V44.4h0ZM110.96,.53h6.47v.74c0,10.97,.03,21.94-.03,32.91,0,1.53-.27,3.11-.71,4.58-.93,3.12-3.1,5.08-6.29,5.83-2.31,.55-4.64,.54-6.93-.11-3.52-.99-5.48-3.46-6.22-6.95-.25-1.18-.37-2.4-.37-3.6-.03-10.86-.02-21.72-.02-32.59,0-.58,.3-.87,.89-.87,1.75,0,3.51,.03,5.26-.01,.61-.01,.75,.19,.75,.77-.02,11.08-.02,22.16,0,33.23,0,.7,.1,1.43,.3,2.1,.38,1.27,1.32,1.94,2.64,2.04,.53,.04,1.09,.05,1.61-.04,1.39-.25,2.29-1.29,2.51-2.86,.08-.55,.12-1.12,.12-1.68,0-10.86,0-21.72,0-32.59V.53h0Zm47.47,0c2.34,14.63,4.68,29.23,7.02,43.86h-6.91c-.22-1.48-.45-2.96-.67-4.45-.15-.98-.3-1.97-.42-2.95-.06-.45-.25-.6-.72-.59-2.42,.02-4.85,.02-7.27,0-.5,0-.67,.17-.73,.65-.34,2.43-.71,4.86-1.08,7.33h-6.28c.2-1.27,.39-2.5,.58-3.74,.81-5.05,1.61-10.1,2.42-15.15,.71-4.46,1.43-8.91,2.15-13.36,.58-3.64,1.17-7.29,1.73-10.94,.08-.53,.25-.72,.81-.72,2.9,.03,5.8,.01,8.7,.01,.21,0,.42,.02,.68,.03h0Zm-5.28,8.22c-.06,0-.12-.01-.18-.02-1.08,7.24-2.17,14.48-3.26,21.77h6.7c-1.09-7.29-2.17-14.52-3.25-21.75h0ZM67.01,.55h.65c3.44,0,6.88-.03,10.32,.04,2.55,.06,4.91,.75,6.75,2.66,1.49,1.54,2.33,3.46,2.41,5.54,.15,3.62,.22,7.27,0,10.88-.29,4.64-3.57,7.78-8.18,8.12-1.67,.12-3.37,.02-5.13,.02v16.57h-6.82V.55Zm6.84,6.31c-.02,.09-.04,.15-.04,.22,0,4.71,0,9.42-.01,14.13,0,.41,.16,.52,.53,.51,.89-.02,1.77,0,2.66,0,2.2-.01,3.38-1.03,3.46-3.23,.1-2.83,.08-5.66,0-8.49-.05-1.84-.9-2.93-2.44-3.1-1.36-.15-2.75-.03-4.17-.03h0Zm46.47,24.39h6.46c0,1.04-.01,2.05,0,3.06,0,.47,.03,.95,.1,1.42,.38,2.39,2.11,3.12,4.16,2.84,1.89-.26,2.84-1.57,2.92-3.82,.08-2.42-.71-4.54-2.3-6.3-1.5-1.66-3.15-3.2-4.78-4.75-2.16-2.05-4.21-4.2-5.33-7.02-1.42-3.55-1.49-7.18-.28-10.78,1.05-3.1,3.28-4.96,6.49-5.6,2.44-.48,4.87-.44,7.22,.43,3.11,1.15,4.77,3.56,5.39,6.69,.29,1.45,.27,2.96,.39,4.44,0,.14-.04,.29-.07,.47h-6.46c0-.82,0-1.63,0-2.44,0-.24-.01-.48-.06-.71-.45-2.37-2.13-3.43-4.47-2.83-1.03,.26-1.71,.9-2.03,1.9-.74,2.38-.34,4.62,.89,6.73,1.19,2.05,2.97,3.59,4.69,5.17,1.75,1.61,3.5,3.22,4.89,5.18,2.22,3.13,3.01,6.61,2.56,10.38-.13,1.15-.35,2.32-.75,3.4-1.29,3.52-3.99,5.24-7.61,5.67-1.75,.21-3.5,.15-5.21-.3-3.7-.97-5.73-3.5-6.52-7.14-.44-2.01-.27-4.04-.29-6.12h0Zm-76.52,6.98v6.15H25.09V.6h18.7V6.77h-.79c-3.44,0-6.88,.01-10.32-.01-.57,0-.79,.12-.79,.74,.03,3.61,.03,7.23,0,10.84,0,.58,.17,.73,.74,.72,2.64-.03,5.28-.01,7.92-.01,.25,0,.51,.02,.8,.04v6.15c-.25,.02-.5,.06-.75,.06-2.66,0-5.32,.02-7.98-.01-.59,0-.72,.19-.72,.74,.02,3.83,.02,7.66,0,11.49,0,.57,.16,.73,.73,.73,3.44-.03,6.88-.01,10.32-.01h.85Zm3.59,6.16V.6h6.81V38.22h11.29v6.18h-18.1ZM231.12,25.42c-.18-.01-.34,.12-.35,.31,0,.03-.2,2.82-1.37,4.86-.09,.16-.04,.36,.12,.45,.16,.09,.36,.03,.45-.12,1.24-2.18,1.44-5.03,1.45-5.15,.01-.18-.12-.34-.31-.35h0Zm1.11-7.92c-.07,0-.12,.06-.12,.12,0,0,0,.51-.29,.51s-.36-.5-.36-.5c0-.07-.07-.12-.14-.11-.07,0-.12,.07-.11,.14,0,.03,.09,.72,.61,.72,.43,0,.54-.5,.54-.76,0-.07-.06-.12-.12-.12Zm.37,9.09c-.18-.02-.35,.11-.37,.29,0,.01-.15,1.13-.7,2.23-.08,.16-.02,.36,.15,.44s.36,.02,.44-.15c.6-1.2,.75-2.39,.76-2.44,.02-.18-.11-.35-.29-.37Zm.32-10.91c-.15,0-.46-.03-.83-.07l.82-1.32c.05-.08,.02-.18-.05-.23-.08-.05-.18-.02-.23,.05,0,0-.54,.87-.79,1.26-.31-.62-1.17-1.27-1.29-1.35-.07-.05-.18-.04-.23,.04-.05,.07-.04,.18,.04,.23,.41,.3,1.03,.86,1.21,1.26-.62-.07-1.21-.14-1.22-.15-.09-.01-.17,.05-.19,.14-.01,.09,.05,.17,.14,.19,.05,0,.74,.09,1.4,.17,.01,0,.02,.02,.04,.02,.04,.01,.08,0,.11,0,.45,.05,.88,.09,1.06,.09,.09,0,.16-.07,.16-.16s-.07-.16-.16-.16h0Zm.11-4.48s-.36,.12-.98-.03l-2.26-.66c.09,.03,.13,.12,.11,.2-.03,.09-.12,.14-.21,.11l1.76,.51v.02c.04,.28,.1,.74,.07,1-.22-.03-.43-.06-.63-.1l-1.12-.22c-.09-.02-.18,.04-.2,.13-.02,.09,.04,.18,.13,.19l1.13,.22c.73,.14,1.95,.23,2.17,.17,.09-.02,.13-.11,.11-.2-.02-.09-.11-.14-.2-.12-.08,.02-.54,0-1.06-.04,.03-.3-.02-.73-.05-.95l.17,.05c.72,.18,1.15,.03,1.17,.02,.08-.03,.13-.13,.1-.21-.03-.08-.13-.13-.21-.1h0Zm1.97,32.59c0-1.49-.09-36.55-.27-39.22-.18-2.69-.53-3.73-.57-3.84l-.16-.44h-.46l-59.37,.09v.66c0,4.25,0,41.6,.28,43.21l.09,.56,60.47-.37v-.66h0Zm-59.29-.3c-.09-2.23-.15-10.45-.18-19.99,.4,.73,1.01,1.79,1.29,2.27,0,.15,.07,14.25,.08,17.71-.68,0-1.1,0-1.19,0h0Zm6-.04c-.62,0-1.19,0-1.73,.01,.11-1.03,.37-3.51,.41-3.9,.35-.02,1.17-.07,1.63-.1-.04,.48-.22,2.81-.31,3.99h0Zm2.57-.02c-.67,0-1.3,0-1.91,.01l.33-4.31c0-.1-.03-.19-.1-.26-.07-.07-.16-.1-.26-.1l-2.28,.15c-.16,.01-.29,.14-.31,.3l-.45,4.25c-.67,0-1.26,0-1.75,.01-.02-3.5-.08-17.8-.08-17.8,0-.06-.02-.11-.05-.16-.71-1.22-1.48-2.58-1.64-2.91,.13-.43,1.32-2.64,2.44-4.62,.01-.02,.02-.05,.03-.07,.03-.1,.05-.22,.05-.36,0-.25-.08-.53-.31-.72,.19-.13,.56-.29,.93-.29,.15,0,.35,.04,.47,.23,.15,.25,.1,.65-.13,1.07l-2.05,3.66c-.06,.11-.06,.24,0,.34,1.1,1.73,1.61,2.42,1.87,2.7-.42,.45-.68,.98-.68,1.41,0,.84,1.16,1.71,1.39,1.88,.15,.11,.36,.07,.46-.08,.11-.15,.07-.35-.08-.46-.46-.33-1.11-.96-1.11-1.34,0-.55,.86-1.63,1.9-1.63,.29,0,.62,.08,.91,.24,.02,.02,.04,.04,.07,.06,.03,.02,.07,.03,.1,.04,.2,.14,.38,.32,.49,.54,.26,.52,.12,1.18-.4,1.89-.11,.15-.08,.35,.07,.46,.15,.11,.35,.08,.46-.07,.87-1.17,.73-2.05,.46-2.58-.13-.26-.32-.48-.54-.65l1.86-2.76c.06-.09,.07-.2,.03-.31-.01-.02-.98-2.49-1.24-3.53-.11-.45-.07-.84,.13-1.09,.14-.19,.36-.28,.62-.28,.52,0,.67,.08,.71,.14,.03,.03,.04,.1,.04,.16,0,.04,0,.09-.01,.13-.07,.47-.31,.67-.32,.68-.08,.07-.13,.16-.13,.26,0,.04,0,.09,.03,.13,0,0,1.57,3.54,1.71,3.85-.18,.26-1.5,2.26-1.5,2.26-.04,.06-.06,.12-.06,.18v.03c0,.07,.4,4.3,.4,9.51,0,3.15-.15,6.66-.61,9.82h0Zm-6.39-21.78c.18-.32,1.96-3.49,1.96-3.49,.2-.36,.3-.72,.3-1.04,0-.25-.06-.48-.18-.68-.09-.16-.22-.28-.38-.38h.79c.17,0,.32-.13,.33-.31,0,0,.29-3.91,.32-4.39,.31-.04,.9-.11,1.31-.16,0,.63,.04,4.49,.04,4.49,0,.18,.15,.33,.33,.33h.3s-.1,.09-.14,.14c-.22,.28-.33,.64-.33,1.04,0,.2,.02,.4,.08,.61,.23,.93,.98,2.88,1.2,3.45-.14,.21-1.33,1.97-1.78,2.63-.36-.16-.73-.24-1.06-.24-.51,0-.99,.18-1.39,.46-.24-.24-1.02-1.38-1.71-2.46h0Zm1.69,2.47h0s0,0,0,0h.01Zm3.42-13.29c0-.09-.04-.18-.11-.25-.07-.06-.16-.09-.26-.08l-1.94,.24c-.15,.02-.28,.15-.29,.3,0,0-.28,3.82-.32,4.36h-2.33c0-.61-.04-11.33-.05-11.96,.36,.01,.85,.02,1.09,.03,.03,.1,.07,.24,.09,.4l.44,4.41c0,.09,.05,.17,.12,.23,.07,.06,.16,.08,.25,.07l2.14-.29c.16-.02,.28-.15,.29-.31,0,0,.2-4.05,.23-4.57,.4-.03,1.67-.12,2.13-.15,.03,.88,.12,3.29,.24,4.03,.11,.65,.23,5.38,.28,8.07h-1.96c0-.57-.04-4.53-.04-4.53h0Zm10.3,32.56c-.55,0-1.08,0-1.62,.01,.06-.39,.12-.86,.16-1.08,.35,0,1.1,.02,1.51,.03,0,.24-.03,.66-.05,1.04h0Zm2.93-17.45c0,.64-.15,13.76-.18,17.43-.7,0-1.4,0-2.08,.01l.06-1.34c0-.09-.03-.18-.09-.24-.06-.07-.15-.1-.23-.11l-2.14-.05c-.17,0-.31,.12-.33,.28l-.22,1.47c-.54,0-1.07,0-1.59,.01,.03-1.68,.1-6.06,.1-10.08,0-2.56-.03-4.96-.11-6.43,0-.06-.02-.12-.06-.17,0,0-1.66-2.43-1.87-2.74,.21-.34,3.87-6.43,3.87-6.43,.03-.05,.05-.11,.05-.17,0-.07-.02-.15-.07-.21-.12-.15-.32-.48-.32-.74,0-.07,.01-.13,.05-.19,.2-.32,.35-.3,.79-.2,.37,.08,.87,.32,1.04,.46-.31,.73-2.07,4.13-3.18,6.26-.03,.05-.04,.1-.04,.15,0,.07,.02,.14,.06,.19,.61,.84,1.52,2.17,1.85,2.78-.13,.07-.26,.15-.38,.24-.55,.42-.89,.99-.95,1.57-.12,1.27,1.6,1.87,1.68,1.9,.17,.06,.36-.03,.42-.2,.06-.17-.03-.36-.21-.42-.01,0-1.31-.47-1.24-1.21,.04-.39,.3-.81,.69-1.11,.46-.35,1.04-.49,1.6-.39,.04,0,.08,.02,.11,.03,.02,.04,.05,.08,.09,.11,.08,.06,.17,.07,.26,.05,.21,.15,.34,.35,.43,.52,.28,.57,.28,1.38,0,1.92-.08,.16-.02,.36,.14,.45,.16,.08,.36,.02,.45-.14,.38-.73,.38-1.76,.01-2.52-.14-.29-.33-.53-.56-.71l1.98-2.76c.07-.09,.08-.21,.04-.31-.01-.04-1.43-3.7-1.39-5.02,.05-1.42,.36-1.64,.86-1.84,.24-.1,.44-.02,.56,.06,.24,.16,.4,.48,.4,.8,0,.46-.23,.54-.27,.55-.09,.02-.17,.08-.21,.16-.03,.05-.04,.11-.04,.17,0,.03,0,.07,.02,.1,0,0,1.94,5.7,2.07,6.07-.25,.25-1.79,1.75-1.79,1.75-.06,.06-.1,.15-.1,.23h0Zm-2.48-17.97c0,.18,.15,.32,.33,.32h1.86c0,.36,.02,.96,.03,1.29-.43,.07-1.95,.34-1.95,.34-.13,.02-.24,.13-.27,.26l-.54,2.67s0,.04,0,.06c0,.07,.02,.14,.06,.19,.05,.07,.14,.12,.23,.14,0,0,2.32,.32,2.87,.39-.07,.41-.21,1.17-.28,1.52-.47-.02-3.68-.15-4.17-.17,.03-.23,.04-.55,.04-1,0-1.05-.07-2.71-.18-4.96l-.04-.79c-.01-.28-.02-.59-.02-.89,0-1.48,.13-3.1,.19-3.71,.45-.06,4.5-.63,5.02-.7,.07,.36,.2,1.01,.27,1.35-.47,.16-3.27,1.08-3.27,1.08-.13,.05-.23,.17-.23,.31,0,0,.05,2.29,.05,2.29h0Zm1.71,15.01c-.15,.21-1.43,2-1.93,2.69-.07-.02-.14-.04-.21-.05-.37-.07-.75-.05-1.11,.04-.37-.72-1.44-2.23-1.81-2.75,3.19-6.11,3.2-6.34,3.2-6.44,0-.34-.42-.61-.82-.79,.6,.02,1.36,.06,2.03,.08-.47,.39-.66,1.01-.7,2.1v.08c0,1.35,1.09,4.3,1.37,5.04h0Zm-2.54-6.55s0,0,.01-.03c0,0,0,.03-.01,.04h0Zm13.97,26.86c-.8,0-1.6,0-2.4,.01,.2-2.22,.46-5.01,.56-5.92,.36,.02,.96,0,2.01-.07-.02,.52-.12,4.44-.17,5.98Zm-1.91-6.53s.08,.07,.11,.14c-.02-.06-.06-.11-.11-.14Zm2.57,6.53l.18-6.32c0-.09-.04-.18-.1-.25-.07-.06-.16-.1-.25-.09-1.03,.08-2.27,.13-2.47,.08,0,0,.01,0,.02,0-.06-.03-.12-.05-.18-.04-.2,.02-.42,1.29-.65,3.8l-.26,2.83c-.69,0-1.37,0-2.06,.01,.06-2.65,.26-11.37,.37-16.32h0c0-.08-.02-.15-.06-.2-.61-.83-1.56-2.35-1.67-3.03,.95-1.36,3.4-4.7,4.44-5.33,.1-.06,.16-.17,.16-.28,0-.05-.01-.1-.03-.14-.15-.32-.28-.7-.28-.82h0s.31-.21,1.12-.17c.59,.03,.79,.13,.84,.21,.04,.06,.05,.16,.02,.31-.12,.56-3.29,4.97-4.45,5.88-.07,.06-.12,.14-.12,.23,0,.09,.02,.18,.08,.25l1.71,1.98c-.35,.35-.58,.8-.58,1.25,0,.92,1.26,1.83,1.4,1.92,.15,.1,.35,.07,.46-.08,.1-.15,.07-.36-.08-.46-.43-.3-1.12-.94-1.12-1.38,0-.56,.71-1.28,1.58-1.32h.15c.65-.04,1.46-.08,1.82,.26,.15,.14,.21,.34,.21,.62,0,1.29-.3,1.88-.3,1.89-.08,.16-.02,.36,.14,.44,.16,.08,.36,.03,.44-.14,.01-.03,.38-.72,.38-2.2,0-.2-.03-.37-.08-.54l3.35-1.75c.15-.08,.22-.27,.15-.43-.08-.19-2.06-4.65-2.6-5.49-.21-.32-.01-.76,.08-.93,.26-.49,.7-.79,.95-.79,.63,0,1.33,.54,1.37,.75-.02,.12-.35,.51-.71,.81-.08,.06-.12,.16-.12,.25,0,.06,.02,.12,.05,.17,.02,.04,2.28,3.69,2.8,4.78,.31,.64,.39,.98,.4,1.14-.27,.19-4.32,2.96-4.32,2.96-.09,.06-.14,.16-.14,.27v.02c0,.13,.76,12.38,.82,15.33-.95,0-1.91,.01-2.87,.02h0Zm-1.36-29.58c.09,.06,.21,.08,.32,.03,1.53-.67,3.53-.46,4.23-.36-.02,.42-.09,1.88-.12,2.31-2.77,.11-5.73,.1-6.39-.09,.04-1.33,.44-10.43,.51-12.15,.38-.02,1.28-.05,1.72-.07-.03,.67-.42,10.05-.42,10.05,0,.11,.05,.21,.14,.27Zm2.48,5.15c.44,.68,1.98,4.11,2.42,5.11-.43,.22-2.73,1.42-3.11,1.62-.57-.54-1.53-.49-2.31-.45h-.15c-.39,.03-.77,.15-1.1,.34-.32-.36-1.25-1.45-1.53-1.77,1.38-1.3,4.27-5.3,4.43-6.04,.02-.11,.03-.21,.03-.3,0-.21-.06-.4-.17-.55-.18-.23-.47-.35-.79-.41,.94,.02,2.02,0,3.09-.03-.32,.22-.59,.55-.76,.86-.17,.31-.26,.63-.26,.92,0,.25,.07,.49,.2,.69Zm2.4,24.4c-.06-2.81-.72-13.64-.81-15.18,.29-.2,4.32-2.96,4.32-2.96,.07-.04,.11-.11,.13-.18,0,0,0-.02,0-.03,.89,.84,2.44,1.93,3.1,2.39-.39,.88-1.6,3.87-1.6,6.82,0,.44,.03,.89,.09,1.32,.47,3.26,2.93,5.11,3.77,5.66-.17,.3-.79,1.4-1.19,2.11-2.45,.02-5.09,.03-7.8,.05h0Zm8.56-.05l1.16-2.06c.04-.08,.05-.17,.03-.25-.03-.08-.08-.16-.16-.2-.03-.02-3.22-1.82-3.72-5.35-.51-3.6,1.55-7.98,1.57-8.02,.07-.15,.02-.32-.11-.42-1.42-.97-3.51-2.54-3.72-3.02-.07-.42,1.43-2.45,2.91-4.11,.08,0,.15,0,.22-.05,.1-.06,.15-.17,.15-.28,0-.06-.02-.13-.05-.18-.23-.35-.44-.73-.5-.91,.08-.04,.22-.07,.35-.08,.07,0,.14-.03,.2-.08,0,0,.38-.33,.79-.26,.49,.08,1.12,.52,1.21,.73-.21,.42-1.86,2.39-3.4,4.12-.05,.06-.08,.14-.08,.22,0,.02,0,.04,0,.06,.02,.1,.09,.19,.18,.23l3.31,1.63c-.02,.21-.01,.4,0,.55v.15c0,.59,1.02,1.28,1.62,1.64,.16,.09,.36,.04,.45-.11,.03-.05,.05-.11,.05-.17,0-.11-.06-.22-.16-.28-.64-.38-1.26-.9-1.3-1.09v-.17c0-.08-.01-.16-.01-.24,0-.51,.16-1.1,1.5-1.39,.98-.21,1.71-.15,2.11,.17,.27,.22,.4,.57,.4,1.06,0,1.13-.26,1.49-.27,1.49-.11,.14-.09,.35,.05,.46,.14,.11,.34,.1,.45-.03,.07-.08,.42-.55,.42-1.92,0-.25-.03-.49-.09-.69,2.66-2.19,2.96-2.78,2.96-3.03,0-.04,0-.07-.01-.1-.08-.3-.5-.57-4.21-2.3-.84-.39-1.77-.82-2.14-1.02,.13-.29,.52-.86,.9-1.01l.51-.23c.06-.03,.12-.06,.18-.09,.01,.12,.03,.26,.03,.26,0,.27,.02,.64,.38,.82,.16,.08,.45,.15,.88,.26,.5,.12,1.18,.29,1.88,.53,1.17,.41,3.52,1.48,4.12,1.87-.54,.88-3.27,4.48-3.92,5.18-.32,.35-.5,1.2-.79,2.68-.3,1.52-.68,3.42-1.33,4.41-.04,.06-.06,.12-.06,.18,0,.04,0,.08,.02,.13,.04,.1,.13,.17,.24,.2,0,0,3.08,.65,3.47,.73,.07,.41,.79,4.88,.79,4.88,.02,.12,.1,.21,.21,.26,.11,.04,.23,.02,.33-.05,.33-.27,1.32-.99,1.85-1.1,.47-.09,1.03,.24,1.2,.43-.43,.52-2.83,2.47-4.26,2.79-.43-1.27-1.75-4.95-2.51-5.47-.07-.05-.17-.07-.25-.05l-5.15,1.07c-.13,.03-.23,.12-.25,.25,0,.02,0,.05,0,.07,0,.1,.05,.2,.13,.26,0,0,3.23,2.48,3.59,2.76-.13,.31-.97,2.29-1.37,3.26-.95,0-1.95,.01-2.98,.02h0Zm.83-32.17c.22,2.21,.4,4.63,.4,5.67,0,.19,0,.31-.02,.4-.31,.06-1.34-.14-2.43-.46,.03-.46,.08-1.48,.08-2.69,0-1-.04-2.12-.15-3.17-.17-1.64-.21-3.6-.21-4.9,0-.55,0-.95,.01-1.19,.53-.17,2.1-.63,3.85-.59,1.03,.02,4.43,.29,5.03,2.81,.04,.15,.05,.3,.05,.44,0,.31-.09,.6-.27,.88-.69,1.05-2.74,1.88-6.08,2.46-.16,.03-.27,.17-.27,.33v.03h0Zm.64,7.09c.05,.22,.06,.23,2.56,1.4,1.25,.58,3.25,1.51,3.77,1.86-.3,.41-1.45,1.46-2.53,2.35-.08-.1-.16-.19-.26-.27-.57-.46-1.46-.56-2.66-.3-1.06,.23-1.57,.67-1.81,1.13-.5-.25-2.31-1.14-2.83-1.39,3.28-3.72,3.29-4.08,3.29-4.22,0-.37-.38-.74-.82-1.01,.77,.14,1.15,.1,1.36,.02-.05,.13-.09,.25-.09,.34,0,.03,0,.06,0,.09h0Zm2.65-3c.16-.25,.49-.51,.89-.53,.03,0,.05,0,.08-.01,.01,0,1.03-.3,1.32,.19,.14,.23,.17,.47,.09,.71-.11,.35-.44,.66-.91,.86-.29,.12-.56,.13-.81,.03-.37-.15-.63-.51-.74-.78-.05-.12-.02-.29,.09-.46h0Zm-.43,28.06l1.36-3.23s.03-.08,.03-.13c0-.1-.04-.2-.13-.26,0,0-2.39-1.84-3.22-2.48,1.01-.21,3.98-.83,4.27-.89,.47,.5,1.5,3.02,2.27,5.33,.05,.15,.19,.24,.34,.22,1.59-.15,5.16-2.85,5.16-3.49,0-.2-.13-.41-.37-.61-.4-.33-1.08-.61-1.67-.49-.52,.11-1.23,.56-1.69,.9-.14-.87-.74-4.56-.74-4.56-.02-.14-.12-.24-.26-.27,0,0-2.57-.54-3.25-.68,.58-1.14,.91-2.83,1.19-4.24,.2-1,.42-2.13,.63-2.36,.04-.05,4.17-5.04,4.17-5.75,0-.01,0-.02,0-.03-.13-.64-4.59-2.32-4.64-2.34-.73-.25-1.43-.43-1.94-.55-.33-.08-.65-.16-.75-.21,0-.02-.01-.07-.01-.13,.03,.01,.05,.03,.08,.04,.42,.17,.87,.16,1.32-.04,.65-.28,1.1-.73,1.28-1.26,.14-.42,.08-.86-.15-1.25-.53-.88-1.85-.55-2.05-.49-.54,.05-1.07,.37-1.36,.84-.22,.36-.27,.74-.14,1.07,.02,.04,.04,.09,.06,.13-.07,.03-.14,.06-.21,.1l-.45,.21c-.35,.14-.71,.48-.98,.85,.01-.16,.02-.35,.02-.59,0-1.22-.18-3.36-.36-5.27,3.39-.62,5.43-1.5,6.22-2.69,.25-.38,.38-.8,.38-1.24,0-.19-.02-.39-.07-.59-.48-2.01-2.6-3.25-5.66-3.32-2.27-.05-4.22,.67-4.3,.7-.13,.05-.21,.17-.21,.3,0,.04-.09,3.65,.2,6.41,.28,2.71,.05,5.98,.05,6.02-.01,.15,.08,.29,.23,.34,.12,.04,.24,.07,.35,.1-.33,.07-.59,.23-.72,.33-.3,.04-.88,.17-.88,.66,0,.25,.21,.66,.42,1.01-.99,1.1-2.4,2.79-2.91,3.93-.48-.99-2.16-3.75-2.68-4.58,.31-.29,.73-.74,.73-1.13,0-.44-.55-.95-1.2-1.22,.1-.05,.17-.15,.18-.27l.15-2.92c0-.16-.11-.31-.27-.34-.11-.02-2.44-.46-4.43,.19,.04-.88,.42-9.92,.42-9.93,0-.09-.04-.17-.1-.23-.07-.07-.16-.1-.25-.1l-2.38,.1c-.17,0-.31,.14-.32,.32-.02,.49-.53,12.11-.53,12.65l.13,.29c.16,.16,.72,.26,1.5,.31-.59,.06-.99,.26-1.12,.59-.02,.06-.04,.14-.04,.22,0,.25,.11,.56,.23,.86-1.49,1.15-4.35,5.28-4.48,5.47-.04,.06-.06,.12-.06,.19v.02c.05,.97,1.42,2.94,1.75,3.39-.03,1.38-.3,13.07-.37,16.22-1.48,0-2.96,.02-4.4,.03,.04-3.55,.17-15.89,.18-17.28,.18-.17,1.85-1.8,1.85-1.8,.06-.06,.1-.15,.1-.24,0-.04,0-.07-.02-.11,0,0-1.89-5.53-2.05-6.01,.24-.17,.46-.48,.46-1.03,0-.49-.22-.96-.58-1.26,.02-.03,.03-.06,.04-.09l.39-2.14s0-.04,0-.06c0-.07-.02-.14-.06-.19-.05-.07-.13-.12-.22-.13,0,0-2.3-.31-2.86-.39,.1-.47,.36-1.79,.42-2.11,.36-.06,2.01-.35,2.01-.35,.16-.03,.27-.17,.27-.33,0,0-.05-1.9-.05-1.9,0-.18-.15-.32-.33-.32h-1.86c0-.42-.03-1.39-.04-1.72,.41-.13,3.32-1.09,3.32-1.09,.14-.05,.23-.17,.23-.31,0-.02,0-.04,0-.07l-.39-1.94c-.04-.17-.2-.29-.37-.26l-5.59,.78c-.15,.02-.27,.14-.28,.29-.01,.12-.29,2.92-.2,4.96l.04,.79c.09,1.8,.27,5.54,.13,5.98-.04,.1-.08,.21-.09,.33-.23,.06-.46,.21-.66,.53-.11,.17-.15,.36-.15,.54,0,.39,.19,.74,.33,.96-.21,.34-3.87,6.43-3.87,6.43-.03,.05-.05,.11-.05,.17,0,.07,.02,.13,.06,.19,0,0,1.84,2.69,1.94,2.84,.08,1.46,.1,3.81,.1,6.3,0,4.02-.07,8.42-.1,10.09-1.34,0-2.62,.02-3.81,.02,.46-3.17,.6-6.67,.6-9.82,0-4.8-.33-8.76-.39-9.46,.12-.18,1.54-2.31,1.54-2.31,.04-.06,.06-.12,.06-.18,0-.05,0-.09-.03-.14,0,0-1.54-3.46-1.7-3.82,.14-.17,.32-.46,.38-.91,.01-.08,.02-.15,.02-.22,0-.23-.06-.41-.18-.56h.08c.09,0,.17-.04,.24-.1,.06-.06,.1-.15,.1-.24,0-.31-.15-7.62-.3-8.5-.14-.84-.24-4.25-.24-4.28,0-.09-.04-.17-.11-.24-.07-.06-.16-.09-.25-.08l-2.77,.19c-.17,.01-.3,.15-.31,.31,0,0-.2,4.1-.23,4.59-.34,.05-1.12,.15-1.52,.21-.06-.58-.4-4.09-.4-4.09-.06-.44-.22-.77-.23-.79-.05-.11-.16-.18-.29-.18l-1.65-.05c-.09,0-.18,.03-.24,.09-.06,.06-.1,.15-.1,.24l.05,12.63c0,.18,.15,.33,.33,.33h.65c-.42,.17-.78,.43-.83,.73,0,.03,0,.06,0,.09,0,.19,.12,.36,.33,.44,.08,.03,.1,.12,.1,.21,0,.07,0,.13-.02,.16-1.14,2.01-1.77,3.19-2.12,3.9-.02-6.67-.03-13.82-.03-19.9,1.28,0,56.55-.09,57.54-.09,.08,.37,.2,1,.29,1.94-.92-.05-1.7-.08-1.83,.44-.01,.05-.02,.1-.02,.14,0,.29,.24,.49,.44,.65,.14,.11,.28,.23,.28,.32,0,0,0,.05,0,.05,0,0-.09,0-.09,0-.11,0-.33,0-.4,.22,0,.03-.01,.06-.01,.09,0,.19,.18,.33,.39,.43-.33,.17-.5,.33-.5,.48,0,.17,.2,.35,.51,.6-.22-.01-.51-.03-.77-.06-.08,0-.15,.04-.17,.11,0,.02,0,.04,0,.05,0,.06,.03,.11,.08,.14,.38,.24,.8,.52,1.02,.69-.2,.02-.51,.03-.78,.03-.07,0-.14,.05-.16,.12,0,.02,0,.03,0,.05,0,.06,.03,.11,.08,.14,.27,.17,.71,.59,.88,.8-.26,.01-.84-.03-1.35-.08-.09,0-.17,.06-.18,.15,0,.09,.06,.17,.15,.18,.03,0,.07,0,.1,.01-.12,.1-.25,.24-.29,.42-.02,.12-.01,.3,.16,.49,.35,.39,.94,.56,1.32,.51,.24-.04,.35-.16,.39-.25,.11-.24-.02-.6-.4-1.09,.19,0,.34-.02,.4-.05,.07-.04,.1-.1,.11-.18h0c0-.22-.39-.6-.71-.88,.38-.01,.62-.06,.7-.14,.03-.03,.06-.1,.06-.14,0-.07-.01-.19-.74-.68,.56,.04,.61,0,.65-.05,.04-.03,.06-.08,.06-.13,0-.11-.07-.16-.31-.35-.13-.1-.37-.3-.43-.4,.07-.08,.35-.23,.63-.34,.06-.02,.11-.09,.11-.15h0c0-.08-.05-.14-.12-.16-.21-.06-.41-.17-.49-.24,.02,0,.04,0,.04,0,.1,0,.24,0,.34-.1l.1-.28c0-.25-.21-.43-.4-.58-.22-.18-.35-.3-.31-.45,.07-.26,.88-.22,1.53-.19h.01c.02,.24,.04,.5,.06,.77,.16,2.43,.25,33.6,.26,38.48-.34,0-4.45,.03-10.34,.06h0Zm8.87-32.86s-.07,.06-.14,.07c-.28,.04-.76-.11-1.02-.4-.1-.11-.08-.18-.08-.2,.03-.16,.28-.32,.37-.36,.04-.02,.07-.05,.08-.09,.09,0,.17,.01,.26,.02,.62,.72,.54,.94,.53,.96h0Zm.1,3.27c.13,.04,.21-.02,.23-.05,.1-.1,.07-.26,.02-.38-.02-.06-.08-.11-.15-.11-.07,0-.13,.04-.16,.1l-.07,.17s-.01,.04-.01,.07c0,.02,.02,.02,.03,.04h0c0,.08,.04,.14,.11,.17h0Zm-.47,2.82c-.44,.03-1.3,.46-1.3,1.31s.44,1.31,1.29,1.31c.75,0,1.16-.5,1.16-1.41,0-.33-.15-.64-.41-.89-.23-.22-.52-.34-.74-.32Zm-.01,2.29c-.66,0-.96-.3-.96-.98s.7-.96,.99-.98c.11,0,.31,.06,.5,.24,.11,.11,.3,.33,.3,.65,0,.72-.28,1.08-.84,1.08Zm-45.11,13.75c-.02,.18,.12,.34,.3,.36,.18,.02,.34-.12,.36-.3,.1-1.13,0-3.54,0-3.64,0-.18-.16-.32-.34-.32-.18,0-.33,.16-.32,.34,0,.02,.1,2.47,0,3.55Zm42.65-6.18c-.18,0-.33,.14-.34,.32-.02,.64-.13,1.8-.34,2.17-.09,.16-.04,.36,.12,.45,.16,.09,.36,.04,.45-.12,.37-.64,.43-2.3,.44-2.49,0-.18-.14-.33-.32-.34h0Zm-6.17-18.61c.33-.32,.52-.67,.52-.98s-.21-.54-.61-.74c-.54-.26-1.84-.54-2.21-.25-.1,.08-.36,.29-.46,2.53,0,.09,.03,.17,.09,.24,.06,.07,.14,.1,.23,.11,.92,.03,1.83-.31,2.45-.9h0Zm-1.87-1.43c.4-.05,1.61,.24,1.73,.47,0,.05-.07,.24-.32,.48-.32,.32-.91,.63-1.62,.69,.05-.71,.13-1.43,.21-1.65Zm-21.72,21.91c-.02,.06-.51,1.44-.41,2.66,.02,.18,.18,.32,.36,.3,.18-.02,.32-.17,.3-.36-.09-1.08,.37-2.38,.37-2.39,.06-.17-.03-.36-.2-.42-.17-.06-.36,.03-.42,.2h0Zm1.66-14.94c-.79-.09-1.79,.05-2.23,.55-.25,.29-.33,.71-.21,1.12,.13,.45,.5,.79,1,.93,.79,.22,1.78,.5,2.24-.68,.2-.52,.19-1.02-.04-1.4-.17-.28-.46-.47-.77-.51h0Zm.19,1.67c-.21,.55-.49,.56-1.45,.29-.28-.08-.48-.25-.54-.48-.06-.21,0-.4,.07-.49,.23-.26,.96-.41,1.66-.33,.11,.01,.21,.08,.27,.19,.12,.2,.11,.49-.01,.82h0Zm15.69,24.32c-.11-.15-.31-.19-.46-.08-.15,.11-.18,.31-.08,.46l.58,.83c.11,.15,.31,.19,.46,.08,.15-.11,.19-.31,.08-.46l-.58-.83Zm-18.27-11.41c-.15-.1-.36-.05-.45,.1-.04,.06-.89,1.46-.29,4.66,.03,.18,.21,.3,.39,.26,.18-.03,.3-.21,.26-.39-.55-2.91,.19-4.17,.2-4.19,.09-.16,.05-.36-.11-.45h0Zm-10.3-15.07c-.96,0-1.71,.58-1.71,1.33s.75,1.33,1.71,1.33,1.72-.58,1.72-1.33-.75-1.33-1.72-1.33Zm0,1.99c-.57,0-1.05-.3-1.05-.66s.48-.66,1.05-.66,1.05,.3,1.05,.66-.48,.66-1.05,.66Zm25.4,18.4c1.2-2.65,.67-4.79,.65-4.88-.05-.18-.23-.28-.4-.24-.18,.05-.28,.23-.24,.4,0,.02,.49,2.02-.61,4.45-.07,.17,0,.36,.16,.44,.17,.07,.36,0,.44-.16h0Zm.83-19.42c-.76,.08-1.46,.41-1.82,.87-.22,.28-.31,.59-.27,.91,.06,.45,.42,.86,.95,1.11,.58,.26,1.21,.24,1.65-.05,.54-.36,1.16-.87,1.07-1.58-.07-.57-.91-1.33-1.57-1.26h0Zm.14,2.29c-.3,.2-.71,.13-1.01,0-.31-.14-.54-.38-.57-.59-.02-.14,.03-.28,.13-.41,.25-.32,.8-.57,1.37-.62,.3-.03,.83,.46,.85,.68,.02,.17-.04,.45-.78,.95Zm-2.28,12.3c-.18,.05-.28,.23-.23,.41,0,.02,.4,1.5-.03,2.45-.08,.17,0,.36,.16,.44,.17,.08,.36,0,.44-.16,.53-1.16,.09-2.83,.07-2.9-.05-.18-.23-.28-.4-.23h0Zm2.38,10.45c-.12-.14-.33-.15-.47-.04-.14,.12-.15,.33-.04,.47l1.75,2.04c.12,.14,.33,.15,.47,.04,.14-.12,.15-.33,.04-.47l-1.75-2.04Zm.69,2.99l-1.51-.87c-.16-.09-.36-.04-.45,.12-.09,.16-.04,.36,.12,.45l1.51,.87c.16,.09,.36,.04,.45-.12,.09-.16,.04-.36-.12-.45Zm14.74-36.5c.16-.07,.34-.15,.31-.31-.01-.07-.07-.15-.25-.15-.15,0-.25,.05-.3,.15-.05,.1,0,.21,.05,.27,.05,.06,.12,.07,.19,.05h0Zm0-.31s.06,.02,.08,.05c0,0,0,.01,0,.03,0,.01,0,.03,0,.04,0,.02-.02,.02-.03,.03-.02-.02-.04-.04-.05-.08,0-.01,0-.03,0-.04,0-.02,0-.02,.01-.03h0Z" style="fill:#fff;"></path></g></svg> 