<svg xmlns="http://www.w3.org/2000/svg" width="140" height="123" viewBox="0 0 140 123" fill="none"><g clip-path="url(#clip0_268_1831)"><path d="M83.1097 85.5173H60.4406V109.145H83.1097V85.5173Z" fill="#4CA585"></path><path d="M68.8933 59.8642C67.1684 58.1453 67.1684 55.3567 68.8933 53.6379C70.6183 51.919 73.4167 51.919 75.1417 53.6379L77.5024 55.9903L79.8631 53.6379C81.588 51.919 84.3865 51.919 86.1114 53.6379C86.5492 54.0741 86.8723 54.5726 87.0859 55.1127C89.3112 51.9657 89.0193 47.5933 86.1948 44.7787C83.0368 41.6318 77.9141 41.6318 74.756 44.7787L70.4306 49.0888L66.1053 44.7787C62.9472 41.6318 57.8245 41.6318 54.6665 44.7787C51.5084 47.9256 51.5084 53.0303 54.6665 56.1772L70.4306 71.4081L74.9436 67.046L75.6315 66.3813L68.8881 59.8642H68.8933Z" fill="#4CA585"></path><path d="M88.9568 56.4317C87.2319 54.7129 84.4334 54.7129 82.7085 56.4317L80.3477 58.7841L77.987 56.4317C76.2621 54.7129 73.4636 54.7129 71.7387 56.4317C70.0137 58.1506 70.0137 60.9392 71.7387 62.6581L80.3477 70.9771L88.962 62.6581C90.6869 60.9392 90.6869 58.1506 88.962 56.4317H88.9568Z" fill="#4CA585"></path><path d="M105.174 42.416H134.441L139.131 55.1387H105.174V42.416Z" fill="#4CA585"></path><path d="M37.4171 41.8967H10.5425L6.88934 55.1387H37.4171V41.8967Z" fill="#4CA585"></path><path d="M40.8826 28.4833V24.2874L75.0791 3.3183L109.27 24.2874V28.4833H40.8826Z" fill="#4CA585"></path><path d="M77.5076 69.2738L68.3513 60.425C66.3137 58.3946 66.3137 55.1074 68.3409 53.0874C69.3206 52.1111 70.6287 51.571 72.0201 51.571C73.4115 51.571 74.7143 52.1111 75.6993 53.0874L77.5076 54.8893L79.3159 53.0874C80.2956 52.1111 81.6037 51.571 82.9951 51.571C84.3865 51.571 85.6893 52.1111 86.6743 53.0874C88.7015 55.1074 88.7015 58.3946 86.6743 60.4146L77.5076 69.2686V69.2738ZM72.0201 53.1289C71.0508 53.1289 70.1336 53.508 69.4457 54.1883C68.0282 55.6008 68.0282 57.9012 69.4457 59.3137L77.5024 67.0979L85.5695 59.3033C86.9765 57.896 86.9765 55.6008 85.559 54.1883C84.8711 53.5028 83.9592 53.1289 82.9847 53.1289C82.0102 53.1289 81.0982 53.508 80.4103 54.1883L77.4972 57.0911L74.5841 54.1883C73.8962 53.5028 72.9842 53.1289 72.0097 53.1289H72.0201Z" fill="#1C355E"></path><path d="M67.6843 68.8584L51.3781 53.103C49.6949 51.4257 48.7725 49.2083 48.7725 46.8455C48.7725 44.4827 49.6949 42.2654 51.3729 40.5932C53.0458 38.9211 55.2762 38.002 57.6473 38.002C60.0185 38.002 62.2437 38.9211 63.9217 40.5932L67.6947 44.3529L71.4677 40.5932C73.1405 38.9211 75.3709 38.002 77.7421 38.002C80.1132 38.002 82.3385 38.9211 84.0165 40.5932C85.6893 42.2602 86.6169 44.4827 86.6169 46.8455C86.6169 49.2083 85.6945 51.4257 84.0165 53.0978L82.9117 51.9969C84.2927 50.6208 85.0535 48.7929 85.0535 46.8507C85.0535 44.9086 84.2927 43.0755 82.9117 41.7045C81.5307 40.3284 79.6963 39.5702 77.7473 39.5702C75.7983 39.5702 73.9587 40.3284 72.5777 41.7045L67.6999 46.5651L62.8222 41.7045C61.4412 40.3284 59.6068 39.5702 57.6578 39.5702C55.7087 39.5702 53.8691 40.3284 52.4934 41.7045C51.1124 43.0806 50.3515 44.9086 50.3515 46.8507C50.3515 48.7929 51.1124 50.626 52.4934 51.9969L67.7051 66.6929L71.6761 62.8554L72.7653 63.9718L67.7051 68.8584H67.6843Z" fill="#1C355E"></path><path d="M135.118 105.619H3.22579V107.177H135.118V105.619Z" fill="#1C355E"></path><path d="M138.339 123H107.03V121.442H136.776V114.478H1.56339V121.442H70.3942V123H0V112.921H138.339V123Z" fill="#1C355E"></path><path d="M101.704 30.95H100.14V106.398H101.704V30.95Z" fill="#1C355E"></path><path d="M38.1988 26.0842H36.6354V106.403H38.1988V26.0842Z" fill="#1C355E"></path><path d="M104.148 26.8631H34.1965V21.452L69.1695 0L104.148 21.452V26.8631ZM35.7599 25.3052H102.584V22.3245L69.1695 1.82792L35.7599 22.3245V25.3052Z" fill="#1C355E"></path><path d="M7.67102 51.6385H6.10764V106.398H7.67102V51.6385Z" fill="#1C355E"></path><path d="M31.3147 52.4176H2.89227L7.38961 37.4723H31.3147V39.0302H8.55173L4.99242 50.8597H31.3147V52.4176Z" fill="#1C355E"></path><path d="M28.2556 99.1021H26.6923V98.9203H28.2556V99.1021ZM28.2661 97.2794H26.7027L26.7131 95.6228H28.2765L28.2661 97.2794ZM28.2817 93.9767H26.7183L26.7287 92.3201H28.2921L28.2817 93.9767ZM28.2973 90.6739H26.7339L26.7444 89.0174H28.3078L28.2973 90.6739ZM28.313 87.3712H26.7496L26.76 85.7147H28.3234L28.313 87.3712ZM28.3286 84.0685H26.7652L26.7756 82.412H28.339L28.3286 84.0685ZM28.3442 80.7658H26.7808L26.7913 79.1093H28.3547L28.3442 80.7658ZM28.3599 77.4631H26.7965L26.8069 75.8065H28.3703L28.3599 77.4631ZM28.3755 74.1604H26.8121L26.8225 72.5038H28.3859L28.3755 74.1604ZM28.3911 70.8577H26.8277L26.8382 69.2011H28.4016L28.3911 70.8577ZM28.4068 67.555H26.8434L26.8538 65.8984H28.4172L28.4068 67.555ZM28.4224 64.2523H26.859L26.8694 62.5957H28.4328L28.4224 64.2523Z" fill="#1C355E"></path><path d="M18.4845 99.1021H16.9211V98.9203H18.4845V99.1021ZM18.4949 97.2794H16.9315L16.9419 95.6228H18.5053L18.4949 97.2794ZM18.5105 93.9767H16.9471L16.9576 92.3201H18.5209L18.5105 93.9767ZM18.5262 90.6739H16.9628L16.9732 89.0174H18.5366L18.5262 90.6739ZM18.5418 87.3712H16.9784L16.9888 85.7147H18.5522L18.5418 87.3712ZM18.5574 84.0685H16.994L17.0045 82.412H18.5678L18.5574 84.0685ZM18.5731 80.7658H17.0097L17.0201 79.1093H18.5835L18.5731 80.7658ZM18.5887 77.4631H17.0253L17.0357 75.8065H18.5991L18.5887 77.4631ZM18.6043 74.1604H17.0409L17.0514 72.5038H18.6147L18.6043 74.1604ZM18.62 70.8577H17.0566L17.067 69.2011H18.6304L18.62 70.8577ZM18.6356 67.555H17.0722L17.0826 65.8984H18.646L18.6356 67.555ZM18.6512 64.2523H17.0878L17.0983 62.5957H18.6616L18.6512 64.2523Z" fill="#1C355E"></path><path d="M132.237 51.6385H130.673V106.398H132.237V51.6385Z" fill="#1C355E"></path><path d="M134.946 52.4176H107.03V50.8597H132.846L129.282 39.0302H107.03V37.4723H130.449L134.946 52.4176Z" fill="#1C355E"></path><path d="M110.089 99.1021V98.9307L111.652 98.9255V99.0969L110.089 99.1021ZM110.078 97.2794L110.068 95.628H111.631L111.642 97.2742H110.078V97.2794ZM110.063 93.9818L110.052 92.3305H111.615L111.626 93.9766H110.063V93.9818ZM110.047 90.6843L110.036 89.033H111.6L111.61 90.6791H110.047V90.6843ZM110.031 87.3868L110.021 85.7355H111.584L111.595 87.3816H110.031V87.3868ZM110.016 84.0893L110.005 82.4379H111.569L111.579 84.0841H110.016V84.0893ZM110 80.7918L109.99 79.1404H111.553L111.563 80.7866H110V80.7918ZM109.984 77.4943L109.974 75.8429H111.537L111.548 77.4891H109.984V77.4943ZM109.969 74.1967L109.958 72.5454H111.522L111.532 74.1915H109.969V74.1967ZM109.953 70.8992L109.943 69.2479H111.506L111.516 70.894H109.953V70.8992ZM109.937 67.6017L109.927 65.9503H111.49L111.501 67.5965H109.937V67.6017ZM109.922 64.3042L109.911 62.6528H111.475L111.485 64.299H109.922V64.3042Z" fill="#1C355E"></path><path d="M119.855 99.1021V98.9307L121.418 98.9255V99.0969L119.855 99.1021ZM119.844 97.2794L119.834 95.628H121.397L121.408 97.2742H119.844V97.2794ZM119.828 93.9818L119.818 92.3305H121.381L121.392 93.9766H119.828V93.9818ZM119.813 90.6843L119.802 89.033H121.366L121.376 90.6791H119.813V90.6843ZM119.797 87.3868L119.787 85.7355H121.35L121.361 87.3816H119.797V87.3868ZM119.782 84.0893L119.771 82.4379H121.335L121.345 84.0841H119.782V84.0893ZM119.766 80.7918L119.756 79.1404H121.319L121.329 80.7866H119.766V80.7918ZM119.75 77.4943L119.74 75.8429H121.303L121.314 77.4891H119.75V77.4943ZM119.735 74.1967L119.724 72.5454H121.288L121.298 74.1915H119.735V74.1967ZM119.719 70.8992L119.709 69.2479H121.272L121.282 70.894H119.719V70.8992ZM119.703 67.6017L119.693 65.9503H121.256L121.267 67.5965H119.703V67.6017ZM119.688 64.3042L119.677 62.6528H121.241L121.251 64.299H119.688V64.3042Z" fill="#1C355E"></path><path d="M80.9418 106.398H79.3784V82.8378H58.9606V106.398H57.3972V81.2799H80.9418V106.398Z" fill="#1C355E"></path><path d="M69.9512 82.0588H68.3878V97.8765H69.9512V82.0588Z" fill="#1C355E"></path></g><defs><clipPath id="clip0_268_1831"><rect width="139.131" height="123" fill="white"></rect></clipPath></defs></svg>