<svg xmlns="http://www.w3.org/2000/svg" id="Layer_2" viewBox="0 0 144 140">
  <g id="Layer_1-2">
    <g>
      <path d="M112.97,80.61h-25.57v34.23h25.57v-34.23Z" style="fill:#4ca585;"/>
      <path d="M68.39,20.26L85.76,.37l50.26,47.63h5.68v8.06H75.82V23.83c0-1.98-1.6-3.57-3.58-3.57h-3.85Z" style="fill:#f5b335;"/>
      <path d="M38.26,39.69c6.23-6.21,16.59-5.79,22.26,1.27,4.17,5.2,4.32,12.77,.33,18.1-4.16,5.57-11.13,7.28-17.04,5.19l-22.15,22.1H13.62l-1-9.03,3.02-3.01,5.03-1,1-5.02,3.02-3.01,3.02-1,1-3.01,6.06-6.04c-1.87-5.25-.71-11.33,3.49-15.53h.01Z" style="fill:#f5b335;"/>
      <path d="M45.62,45.9c0,1.49,1.21,2.7,2.71,2.7s2.71-1.21,2.71-2.7-1.21-2.7-2.71-2.7-2.71,1.21-2.71,2.7Z" style="fill:#1c355e;"/>
      <path d="M144,140H14.88v-10.06H144v10.06Zm-127.15-1.96h125.18v-6.13H16.85v6.13Z" style="fill:#1c355e;"/>
      <path d="M129.12,58.05h-1.97v72.87h1.97V58.05Z" style="fill:#1c355e;"/>
      <path d="M31.72,101.23h-1.97v29.69h1.97v-29.69Z" style="fill:#1c355e;"/>
      <path d="M133.18,59.03h-49.68v-1.96h47.71v-6.14h-47.71v-1.96h49.68v10.06Z" style="fill:#1c355e;"/>
      <path d="M130.39,50.34L79.18,2.74l-12.56,12.81-1.4-1.37L79.12,0l52.62,48.9-1.34,1.43Z" style="fill:#1c355e;"/>
      <path d="M110.18,111.66h-27.67v-35.7h27.67v35.7Zm-25.7-1.96h23.73v-31.77h-23.73v31.77Z" style="fill:#1c355e;"/>
      <path d="M109.19,86.76h-17.58v1.96h17.58v-1.96Z" style="fill:#1c355e;"/>
      <path d="M62.84,112.51l-17.54-17.04H3.49c-1.93,0-3.49-1.56-3.49-3.49V22.77c0-1.92,1.57-3.49,3.49-3.49H72.88c1.93,0,3.49,1.56,3.49,3.49V91.99c0,1.92-1.57,3.49-3.49,3.49h-10.04v17.04h0ZM3.49,21.24c-.84,0-1.53,.68-1.53,1.52V91.99c0,.84,.68,1.52,1.53,1.52H46.09l14.78,14.36v-14.36h12c.84,0,1.53-.68,1.53-1.52V22.77c0-.84-.68-1.52-1.53-1.52H3.49Z" style="fill:#1c355e;"/>
      <path d="M20.87,84.67H11.54l-1.15-10.37,3.56-3.55,4.68-.94,.94-4.67,3.39-3.38,2.77-.92,.92-2.77,5.8-5.78c-1.74-5.6-.24-11.81,3.93-15.96,3.2-3.19,7.62-4.88,12.14-4.62,4.58,.26,8.69,2.37,11.58,5.98,4.43,5.53,4.58,13.64,.35,19.3-4.1,5.49-11.09,7.74-17.56,5.72l-22.01,21.96h-.01Zm-7.57-1.96h6.76l22.3-22.25,.58,.21c5.82,2.06,12.21,.11,15.92-4.85,3.7-4.96,3.57-12.07-.31-16.9-2.54-3.16-6.14-5.02-10.16-5.25-3.96-.22-7.84,1.26-10.64,4.06-3.78,3.77-5.06,9.46-3.26,14.51l.21,.58-6.33,6.32-1.09,3.26-3.26,1.09-2.64,2.64-1.08,5.37-5.38,1.07-2.47,2.47,.86,7.69h0Z" style="fill:#1c355e;"/>
      <path d="M61.19,73.68h-.18c-4.86-.16-11.49-7.21-13.33-10.84l1.76-.88c1.61,3.19,7.78,9.64,11.64,9.77,1.01,.03,1.74-.39,2.29-1.31,.46-.78,.37-2.39-.22-4.42-1.97-6.65-8.96-16.72-15.01-19.75l.88-1.75c6.6,3.29,13.9,13.77,16.02,20.94,.79,2.67,.8,4.68,.03,5.97-.89,1.49-2.22,2.28-3.87,2.28h0Z" style="fill:#1c355e;"/>
    </g>
  </g>
</svg>